<?xml version="1.0" encoding="UTF-8"?>
<svg xmlns="http://www.w3.org/2000/svg" xmlns:xlink="http://www.w3.org/1999/xlink" width="17px" height="17px" viewBox="0 0 17 17" version="1.1">
<g id="surface1">
<path style=" stroke:none;fill-rule:nonzero;fill:#ffffff;fill-opacity:1;" d="M 15.40625 2.125 L 1.59375 2.125 C 0.714844 2.125 0 2.839844 0 3.71875 L 0 13.28125 C 0 14.160156 0.714844 14.875 1.59375 14.875 L 15.40625 14.875 C 16.285156 14.875 17 14.160156 17 13.28125 L 17 3.71875 C 17 2.839844 16.285156 2.125 15.40625 2.125 Z M 15.40625 3.71875 L 15.40625 5.074219 C 14.660156 5.679688 13.476562 6.621094 10.9375 8.609375 C 10.378906 9.050781 9.269531 10.105469 8.5 10.09375 C 7.730469 10.105469 6.621094 9.050781 6.0625 8.609375 C 3.527344 6.621094 2.339844 5.679688 1.59375 5.074219 L 1.59375 3.71875 Z M 1.59375 13.28125 L 1.59375 7.117188 C 2.355469 7.726562 3.433594 8.574219 5.078125 9.863281 C 5.804688 10.433594 7.074219 11.695312 8.5 11.6875 C 9.917969 11.695312 11.171875 10.453125 11.921875 9.863281 C 13.566406 8.574219 14.644531 7.726562 15.40625 7.117188 L 15.40625 13.28125 Z M 1.59375 13.28125 "/>
</g>
</svg>
