<?xml version="1.0" encoding="UTF-8"?>
<svg xmlns="http://www.w3.org/2000/svg" xmlns:xlink="http://www.w3.org/1999/xlink" width="17px" height="17px" viewBox="0 0 17 17" version="1.1">
<g id="surface1">
<path style=" stroke:none;fill-rule:nonzero;fill:#ffffff;fill-opacity:1;" d="M 8.5 0.265625 C 3.949219 0.265625 0.265625 3.949219 0.265625 8.5 C 0.265625 13.050781 3.949219 16.734375 8.5 16.734375 C 10.097656 16.734375 11.664062 16.265625 12.996094 15.398438 C 13.394531 15.140625 13.480469 14.59375 13.179688 14.222656 L 12.84375 13.8125 C 12.585938 13.5 12.140625 13.425781 11.800781 13.640625 C 10.820312 14.269531 9.671875 14.609375 8.5 14.609375 C 5.132812 14.609375 2.390625 11.867188 2.390625 8.5 C 2.390625 5.132812 5.132812 2.390625 8.5 2.390625 C 11.824219 2.390625 14.609375 4.304688 14.609375 7.703125 C 14.609375 8.992188 13.910156 10.351562 12.679688 10.480469 C 12.101562 10.46875 12.117188 10.054688 12.230469 9.484375 L 13.007812 5.464844 C 13.105469 4.972656 12.726562 4.515625 12.226562 4.515625 L 10.734375 4.515625 C 10.503906 4.515625 10.3125 4.6875 10.285156 4.914062 L 10.285156 4.917969 C 9.796875 4.324219 8.945312 4.195312 8.296875 4.195312 C 5.820312 4.195312 3.71875 6.261719 3.71875 9.222656 C 3.71875 11.390625 4.941406 12.738281 6.90625 12.738281 C 7.800781 12.738281 8.8125 12.21875 9.394531 11.464844 C 9.710938 12.597656 10.746094 12.597656 11.742188 12.597656 C 15.359375 12.597656 16.734375 10.21875 16.734375 7.703125 C 16.734375 3.175781 13.082031 0.265625 8.5 0.265625 Z M 7.78125 10.375 C 7.042969 10.375 6.582031 9.855469 6.582031 9.019531 C 6.582031 7.527344 7.605469 6.605469 8.527344 6.605469 C 9.269531 6.605469 9.710938 7.109375 9.710938 7.957031 C 9.710938 9.453125 8.585938 10.375 7.78125 10.375 Z M 7.78125 10.375 "/>
</g>
</svg>
