<?xml version="1.0" encoding="UTF-8"?>
<svg xmlns="http://www.w3.org/2000/svg" xmlns:xlink="http://www.w3.org/1999/xlink" width="9px" height="15px" viewBox="0 0 9 14" version="1.1">
<g id="surface1">
<path style=" stroke:none;fill-rule:nonzero;fill:#fff;fill-opacity:1;" d="M 7.648438 0 L 1.351562 0 C 0.605469 0 0 0.585938 0 1.3125 L 0 12.6875 C 0 13.414062 0.605469 14 1.351562 14 L 7.648438 14 C 8.394531 14 9 13.414062 9 12.6875 L 9 1.3125 C 9 0.585938 8.394531 0 7.648438 0 Z M 4.5 13.125 C 4.003906 13.125 3.601562 12.734375 3.601562 12.25 C 3.601562 11.765625 4.003906 11.375 4.5 11.375 C 4.996094 11.375 5.398438 11.765625 5.398438 12.25 C 5.398438 12.734375 4.996094 13.125 4.5 13.125 Z M 7.648438 10.171875 C 7.648438 10.351562 7.5 10.5 7.3125 10.5 L 1.6875 10.5 C 1.5 10.5 1.351562 10.351562 1.351562 10.171875 L 1.351562 1.640625 C 1.351562 1.460938 1.5 1.3125 1.6875 1.3125 L 7.3125 1.3125 C 7.5 1.3125 7.648438 1.460938 7.648438 1.640625 Z M 7.648438 10.171875 "/>
</g>
</svg>
