<svg width="46" height="46" fill="#fff" viewBox="0 0 24 24" xmlns="http://www.w3.org/2000/svg">
  <path d="M19.553 2.994a2.23 2.23 0 0 0-.7.167h-.004c-.213.085-1.23.513-2.774 1.16l-5.537 2.332C6.565 8.326 2.66 9.973 2.66 9.973l.047-.018s-.27.088-.55.281a1.524 1.524 0 0 0-.44.425 1.248 1.248 0 0 0-.208.832c.067.542.419.867.67 1.046.255.181.499.266.499.266h.005l3.663 1.234c.164.527 1.116 3.656 1.344 4.377.135.43.267.7.43.905.08.105.174.193.285.264a.838.838 0 0 0 .185.079l-.038-.009c.011.003.02.012.029.015.03.008.05.011.088.017.58.176 1.046-.184 1.046-.184l.026-.02 2.162-1.97 3.624 2.78.082.036c.756.33 1.52.146 1.925-.179.407-.328.565-.747.565-.747l.027-.067 2.8-14.347c.08-.355.1-.686.012-1.008a1.355 1.355 0 0 0-.586-.785 1.404 1.404 0 0 0-.8-.202Zm-.077 1.538c-.002.047.006.04-.014.132v.009L16.687 18.87c-.011.02-.032.064-.088.108-.058.047-.105.076-.348-.02l-4.433-3.399L9.14 18l.563-3.591 7.242-6.75c.299-.278.2-.337.2-.337.02-.34-.452-.1-.452-.1L7.561 12.88l-.003-.015-4.377-1.474v-.003l-.011-.003a.203.203 0 0 0 .023-.008l.024-.012.023-.009 7.88-3.32c1.99-.837 3.994-1.68 5.535-2.331 1.541-.648 2.68-1.122 2.745-1.149.062-.023.032-.023.076-.023Z"></path>
</svg>